<?xml version="1.0" standalone="no"?>
<!DOCTYPE svg PUBLIC "-//W3C//DTD SVG 20010904//EN"
 "http://www.w3.org/TR/2001/REC-SVG-20010904/DTD/svg10.dtd">
<svg version="1.0" xmlns="http://www.w3.org/2000/svg"
 width="126.000000pt" height="126.000000pt" viewBox="0 0 126.000000 126.000000"
 preserveAspectRatio="xMidYMid meet">
<metadata>
Created by potrace 1.11, written by Peter Selinger 2001-2013
</metadata>
<g transform="translate(0.000000,126.000000) scale(0.100000,-0.100000)"
fill="#000000" stroke="none">
<path d="M570 1241 c17 -10 350 -65 357 -58 3 4 -31 13 -87 23 -8 1 -26 5 -40
8 -87 20 -114 24 -183 31 -42 4 -57 3 -47 -4z"/>
<path d="M505 1220 c-3 -4 26 -12 63 -19 37 -6 117 -20 177 -30 61 -11 124
-22 140 -24 118 -19 115 -18 146 -66 l31 -46 -34 39 -33 38 -165 29 c-91 16
-201 36 -245 44 -125 23 -154 25 -160 16 -5 -9 14 -15 78 -26 15 -3 39 -7 55
-10 15 -3 43 -8 62 -11 19 -3 78 -14 130 -24 52 -10 115 -22 140 -25 93 -12
105 -21 175 -120 96 -136 127 -159 45 -35 -54 83 -53 81 -34 73 13 -5 11 4
-11 43 -41 72 -65 90 -130 99 -31 3 -67 8 -79 11 -108 19 -315 52 -329 51 -10
0 -20 -3 -22 -7z"/>
<path d="M350 1172 c0 -7 36 -15 195 -47 349 -69 430 -86 442 -97 9 -7 52 -61
96 -120 78 -106 118 -141 62 -56 -127 195 -151 217 -245 233 -19 3 -53 10 -75
15 -38 8 -63 13 -137 25 -18 3 -91 17 -163 30 -136 26 -175 30 -175 17z"/>
<path d="M290 1149 c-34 -9 -20 -14 130 -43 69 -14 190 -39 270 -56 80 -17
174 -37 210 -45 73 -15 91 -32 209 -183 66 -86 95 -104 46 -30 -37 56 -150
202 -170 218 -8 7 -56 21 -107 31 -103 21 -292 59 -323 65 -11 2 -69 14 -130
27 -62 13 -121 20 -135 16z"/>
<path d="M194 1119 c-3 -5 -4 -9 -2 -10 2 0 14 -2 27 -5 13 -2 60 -13 105 -24
44 -11 171 -40 281 -64 389 -87 340 -70 415 -150 143 -154 173 -183 154 -149
-10 18 -27 43 -39 55 -11 13 -48 57 -82 98 -33 42 -67 81 -75 87 -12 10 -99
33 -218 57 -14 3 -131 28 -260 57 -249 55 -297 62 -306 48z"/>
<path d="M160 1070 c-10 -18 -8 -20 28 -20 22 0 131 -22 243 -49 112 -27 245
-59 294 -71 50 -12 97 -23 105 -25 89 -18 140 -46 194 -106 86 -98 166 -177
171 -169 4 7 -29 55 -55 80 -3 3 -45 49 -93 102 -89 98 -103 107 -190 124 -9
1 -163 37 -341 78 -179 42 -329 76 -335 76 -6 0 -15 -9 -21 -20z"/>
<path d="M162 1014 c-35 -24 -26 -33 31 -27 43 4 89 -5 259 -51 399 -108 513
-158 644 -280 96 -90 114 -103 114 -85 0 7 -53 65 -117 129 -111 109 -123 118
-202 149 -46 18 -152 50 -235 71 -83 21 -213 55 -290 74 -156 41 -173 42 -204
20z"/>
<path d="M143 946 c-18 -8 -33 -19 -33 -23 0 -4 46 -8 102 -8 96 0 112 -3 228
-44 184 -64 550 -210 590 -236 19 -13 66 -48 105 -78 38 -31 71 -54 73 -52 10
10 -13 43 -52 75 -23 19 -66 55 -95 80 -42 36 -88 59 -238 118 -378 148 -602
204 -680 168z"/>
<path d="M123 884 c-12 -3 -27 -12 -33 -20 -11 -12 -2 -14 61 -15 124 -1 121
0 704 -230 125 -50 229 -98 278 -129 62 -40 77 -46 77 -32 0 34 -180 149 -305
195 -38 14 -95 34 -125 45 -30 11 -149 57 -265 102 -192 75 -217 83 -290 86
-44 1 -90 0 -102 -2z"/>
<path d="M75 810 c-9 -15 -11 -15 75 -30 41 -7 116 -27 165 -45 218 -79 762
-288 806 -311 48 -24 79 -31 79 -16 0 8 -80 63 -126 86 -40 20 -666 260 -760
292 -84 28 -227 43 -239 24z"/>
<path d="M70 760 c0 -5 10 -16 23 -24 43 -27 1047 -398 1062 -392 38 14 4 35
-163 98 -97 36 -274 103 -392 148 -237 90 -495 180 -516 180 -8 0 -14 -4 -14
-10z"/>
<path d="M70 700 c0 -33 136 -99 400 -195 102 -37 212 -77 245 -90 165 -64
333 -125 355 -130 26 -5 60 9 48 20 -4 4 -224 89 -490 190 -266 100 -500 189
-520 198 -21 9 -38 12 -38 7z"/>
<path d="M65 651 c-16 -27 122 -122 246 -169 129 -49 576 -212 646 -235 50
-17 65 -19 75 -9 17 17 10 21 -116 67 -56 21 -180 67 -276 102 -371 137 -423
157 -454 177 -96 64 -116 75 -121 67z"/>
<path d="M60 588 c0 -6 30 -41 68 -78 l67 -67 230 -83 c335 -121 477 -171 500
-176 26 -5 55 13 38 24 -6 4 -179 68 -383 142 -367 133 -372 135 -440 192 -72
61 -80 65 -80 46z"/>
<path d="M60 527 c0 -26 76 -111 132 -147 31 -21 97 -50 145 -65 48 -15 186
-63 306 -106 179 -65 222 -77 238 -68 12 6 19 12 17 14 -2 2 -104 40 -228 85
-527 190 -472 166 -541 237 -33 34 -63 63 -65 63 -2 0 -4 -6 -4 -13z"/>
<path d="M60 462 c0 -21 77 -129 107 -150 31 -21 75 -38 392 -148 208 -72 254
-83 265 -65 7 10 -33 27 -161 70 -49 16 -171 59 -272 95 -102 36 -187 66 -190
66 -3 0 -36 33 -73 73 -38 39 -68 66 -68 59z"/>
<path d="M71 369 c31 -61 102 -125 183 -163 81 -39 415 -155 464 -162 24 -3
32 0 32 11 0 8 -2 15 -3 15 -2 0 -51 16 -108 36 -57 20 -176 61 -263 90 -88
30 -173 61 -190 69 -17 9 -51 44 -76 80 -51 73 -71 85 -39 24z"/>
<path d="M520 65 c28 -33 135 -71 159 -55 14 8 -28 27 -118 54 -44 13 -51 13
-41 1z"/>
</g>
</svg>
